<svg width="1600" height="900" viewBox="0 0 1600 900" fill="none" xmlns="http://www.w3.org/2000/svg">
  <defs>
    <linearGradient id="bg" x1="0" y1="0" x2="1600" y2="900" gradientUnits="userSpaceOnUse">
      <stop stop-color="#0A1630"/>
      <stop offset="0.5" stop-color="#193B7D"/>
      <stop offset="1" stop-color="#8AA5FF"/>
    </linearGradient>
    <linearGradient id="glass" x1="0" y1="0" x2="1" y2="1">
      <stop stop-color="#ffffff" stop-opacity="0.9"/>
      <stop offset="1" stop-color="#dce8ff" stop-opacity="0.55"/>
    </linearGradient>
    <filter id="blur" x="-10%" y="-10%" width="120%" height="120%">
      <feGaussianBlur stdDeviation="22"/>
    </filter>
  </defs>
  <rect width="1600" height="900" fill="url(#bg)"/>
  <circle cx="1320" cy="150" r="220" fill="#FFFFFF" fill-opacity="0.09" filter="url(#blur)"/>
  <circle cx="220" cy="120" r="180" fill="#7BA8FF" fill-opacity="0.12" filter="url(#blur)"/>
  <path d="M82 700C250 620 420 600 596 646C770 690 898 690 1030 646C1158 604 1266 560 1528 584" stroke="#D9E5FF" stroke-opacity="0.14" stroke-width="4"/>
  <path d="M70 760C240 680 418 664 570 704C726 748 894 744 1038 706C1178 670 1310 618 1536 640" stroke="#FFFFFF" stroke-opacity="0.12" stroke-width="4"/>

  <g opacity="0.88">
    <rect x="130" y="470" width="360" height="210" rx="32" fill="url(#glass)"/>
    <rect x="170" y="510" width="120" height="90" rx="18" fill="#BFD0FF"/>
    <rect x="320" y="500" width="110" height="110" rx="22" fill="#F0F5FF"/>
    <rect x="338" y="522" width="74" height="14" rx="7" fill="#6A87D8"/>
    <rect x="338" y="548" width="56" height="10" rx="5" fill="#9AAFE6"/>
    <rect x="338" y="572" width="64" height="10" rx="5" fill="#9AAFE6"/>
    <path d="M193 563H267V589H193V563Z" fill="#6F8CFF"/>
    <path d="M173 614H450" stroke="#C9D6FA" stroke-width="5" stroke-linecap="round"/>
  </g>

  <g opacity="0.92">
    <rect x="550" y="430" width="390" height="250" rx="34" fill="url(#glass)"/>
    <rect x="605" y="490" width="150" height="100" rx="24" fill="#E7EEFF"/>
    <rect x="625" y="512" width="110" height="58" rx="14" fill="#6B89ED"/>
    <rect x="786" y="506" width="100" height="62" rx="18" fill="#CDE0FF"/>
    <rect x="786" y="580" width="84" height="14" rx="7" fill="#8BA8F2"/>
    <path d="M638 612H878" stroke="#CFDCF8" stroke-width="6" stroke-linecap="round"/>
  </g>

  <g opacity="0.9">
    <rect x="1010" y="460" width="340" height="220" rx="34" fill="url(#glass)"/>
    <rect x="1060" y="506" width="110" height="78" rx="20" fill="#F5F8FF"/>
    <rect x="1195" y="506" width="96" height="60" rx="16" fill="#D5E4FF"/>
    <rect x="1058" y="602" width="110" height="14" rx="7" fill="#A4BBF7"/>
    <rect x="1193" y="592" width="88" height="14" rx="7" fill="#A4BBF7"/>
    <g>
      <rect x="1198" y="576" width="38" height="24" rx="6" fill="#F6C87A"/>
      <rect x="1238" y="558" width="44" height="28" rx="7" fill="#EAB05D"/>
      <rect x="1244" y="530" width="48" height="30" rx="8" fill="#D7923E"/>
    </g>
  </g>

  <g opacity="0.86">
    <ellipse cx="1210" cy="760" rx="200" ry="54" fill="#DDE7FF" fill-opacity="0.2"/>
    <rect x="1095" y="660" width="230" height="90" rx="26" fill="url(#glass)"/>
    <rect x="1152" y="610" width="118" height="78" rx="16" fill="#CADBFF"/>
    <rect x="1164" y="622" width="92" height="50" rx="10" fill="#6A89EC"/>
    <path d="M1090 720L1046 696C1037 691 1037 677 1046 672L1092 645C1102 639 1114 646 1114 658V707C1114 719 1101 726 1090 720Z" fill="#F1F5FF" fill-opacity="0.8"/>
    <g>
      <rect x="1338" y="677" width="72" height="54" rx="12" fill="#E9F0FF"/>
      <path d="M1350 688H1397" stroke="#8BA6E8" stroke-width="4" stroke-linecap="round"/>
      <path d="M1350 703H1397" stroke="#8BA6E8" stroke-width="4" stroke-linecap="round"/>
      <path d="M1350 718H1382" stroke="#8BA6E8" stroke-width="4" stroke-linecap="round"/>
    </g>
  </g>
</svg>
