<svg width="1600" height="900" viewBox="0 0 1600 900" fill="none" xmlns="http://www.w3.org/2000/svg">
<rect width="1600" height="900" fill="#091529"/>
<g opacity="0.7"><circle cx="280" cy="180" r="220" fill="#183E7D"/><circle cx="1340" cy="170" r="200" fill="#102A5A"/><circle cx="1160" cy="760" r="260" fill="#234F92"/></g>
<g opacity="0.9" stroke="#C1D7FF" stroke-width="3">
<rect x="160" y="240" width="220" height="140" rx="24" fill="#0F2248"/>
<rect x="460" y="170" width="220" height="140" rx="24" fill="#183460"/>
<rect x="760" y="120" width="240" height="140" rx="24" fill="#102A5A"/>
<rect x="1080" y="170" width="240" height="140" rx="24" fill="#15335F"/>
<rect x="650" y="450" width="300" height="180" rx="28" fill="#0D2348"/>
<path d="M380 310H460"/><path d="M680 240H760"/><path d="M1000 210H1080"/><path d="M880 260V450"/><path d="M560 310L700 450"/><path d="M1200 310L930 450"/>
</g>
<g fill="#EFF5FF">
<text x="190" y="285" font-size="28" font-family="Arial" font-weight="700">Familias</text>
<text x="505" y="215" font-size="28" font-family="Arial" font-weight="700">Líneas</text>
<text x="820" y="165" font-size="28" font-family="Arial" font-weight="700">Estilos</text>
<text x="1125" y="215" font-size="28" font-family="Arial" font-weight="700">Modelos</text>
<text x="720" y="520" font-size="36" font-family="Arial" font-weight="700">Producto terminado</text>
<text x="740" y="575" font-size="24" font-family="Arial">Materiales · Consumos · Ficha técnica</text>
</g>
</svg>
