<svg xmlns="http://www.w3.org/2000/svg" viewBox="0 0 1200 540" fill="none">
  <!-- Background gradient -->
  <defs>
    <linearGradient id="bg" x1="0" y1="0" x2="1200" y2="540" gradientUnits="userSpaceOnUse">
      <stop offset="0%" stop-color="#0b1e3a"/>
      <stop offset="60%" stop-color="#0f2a4a"/>
      <stop offset="100%" stop-color="#0a3d62"/>
    </linearGradient>
    <linearGradient id="glow1" x1="0" y1="0" x2="0" y2="1" gradientUnits="userSpaceOnUse">
      <stop offset="0%" stop-color="#10b981" stop-opacity="0.9"/>
      <stop offset="100%" stop-color="#059669" stop-opacity="0.4"/>
    </linearGradient>
    <linearGradient id="glow2" x1="0" y1="0" x2="0" y2="1" gradientUnits="userSpaceOnUse">
      <stop offset="0%" stop-color="#3b82f6" stop-opacity="0.9"/>
      <stop offset="100%" stop-color="#1d4ed8" stop-opacity="0.4"/>
    </linearGradient>
    <linearGradient id="glow3" x1="0" y1="0" x2="0" y2="1" gradientUnits="userSpaceOnUse">
      <stop offset="0%" stop-color="#f59e0b" stop-opacity="0.9"/>
      <stop offset="100%" stop-color="#d97706" stop-opacity="0.4"/>
    </linearGradient>
    <filter id="gf" x="-20%" y="-20%" width="140%" height="140%">
      <feGaussianBlur stdDeviation="18" result="blur"/>
      <feComposite in="SourceGraphic" in2="blur" operator="over"/>
    </filter>
    <filter id="glow-sm">
      <feGaussianBlur stdDeviation="6"/>
    </filter>
  </defs>

  <!-- Base fill -->
  <rect width="1200" height="540" fill="url(#bg)"/>

  <!-- Grid lines (subtle) -->
  <g stroke="rgba(255,255,255,0.04)" stroke-width="1">
    <line x1="0" y1="90" x2="1200" y2="90"/>
    <line x1="0" y1="180" x2="1200" y2="180"/>
    <line x1="0" y1="270" x2="1200" y2="270"/>
    <line x1="0" y1="360" x2="1200" y2="360"/>
    <line x1="0" y1="450" x2="1200" y2="450"/>
    <line x1="150" y1="0" x2="150" y2="540"/>
    <line x1="300" y1="0" x2="300" y2="540"/>
    <line x1="450" y1="0" x2="450" y2="540"/>
    <line x1="600" y1="0" x2="600" y2="540"/>
    <line x1="750" y1="0" x2="750" y2="540"/>
    <line x1="900" y1="0" x2="900" y2="540"/>
    <line x1="1050" y1="0" x2="1050" y2="540"/>
  </g>

  <!-- Glow blobs -->
  <ellipse cx="900" cy="270" rx="280" ry="200" fill="#3b82f6" opacity="0.08" filter="url(#gf)"/>
  <ellipse cx="300" cy="200" rx="220" ry="160" fill="#10b981" opacity="0.07" filter="url(#gf)"/>

  <!-- ── Ledger book (left panel) ── -->
  <!-- Book shadow -->
  <rect x="68" y="88" width="320" height="380" rx="12" fill="#000" opacity="0.3"/>
  <!-- Book cover -->
  <rect x="60" y="80" width="320" height="380" rx="12" fill="#1e3a5f"/>
  <rect x="60" y="80" width="32" height="380" rx="12" fill="#0d2847"/>
  <!-- Book binding lines -->
  <line x1="92" y1="110" x2="92" y2="430" stroke="rgba(255,255,255,0.08)" stroke-width="1"/>
  <!-- Book pages area -->
  <rect x="96" y="96" width="278" height="352" rx="4" fill="#f8fafc" opacity="0.96"/>

  <!-- Ledger header -->
  <rect x="96" y="96" width="278" height="32" rx="4" fill="#0f172a"/>
  <text x="110" y="117" fill="white" font-family="'Courier New', monospace" font-size="11" font-weight="700" letter-spacing="1">CATÁLOGO DE CUENTAS</text>

  <!-- Column headers -->
  <rect x="96" y="128" width="278" height="18" fill="#e2e8f0"/>
  <text x="104" y="141" fill="#64748b" font-family="'Courier New', monospace" font-size="8.5" font-weight="600">CÓDIGO</text>
  <text x="180" y="141" fill="#64748b" font-family="'Courier New', monospace" font-size="8.5" font-weight="600">NOMBRE</text>
  <text x="330" y="141" fill="#64748b" font-family="'Courier New', monospace" font-size="8.5" font-weight="600">SI</text>
  <text x="350" y="141" fill="#64748b" font-family="'Courier New', monospace" font-size="8.5" font-weight="600">NO</text>

  <!-- Ledger rows -->
  <g font-family="'Courier New', monospace" font-size="8.5">
    <!-- Row 1 - level 1 -->
    <rect x="96" y="146" width="278" height="14" fill="white"/>
    <text x="104" y="157" fill="#0f172a" font-weight="700">100-00-000</text>
    <text x="184" y="157" fill="#0f172a" font-weight="700">ACTIVO</text>
    <circle cx="335" cy="153" r="4" fill="#10b981"/>
    <!-- Row 2 - level 2 -->
    <rect x="96" y="160" width="278" height="14" fill="#f8fafc"/>
    <text x="110" y="171" fill="#334155">100-01-000</text>
    <text x="184" y="171" fill="#334155">Caja y Bancos</text>
    <circle cx="335" cy="167" r="4" fill="#10b981"/>
    <!-- Row 3 - level 3 -->
    <rect x="96" y="174" width="278" height="14" fill="white"/>
    <text x="120" y="185" fill="#64748b">100-01-001</text>
    <text x="184" y="185" fill="#64748b">Caja general</text>
    <circle cx="335" cy="181" r="4" fill="#10b981"/>
    <!-- Row 4 -->
    <rect x="96" y="188" width="278" height="14" fill="#f8fafc"/>
    <text x="120" y="199" fill="#64748b">100-01-002</text>
    <text x="184" y="199" fill="#64748b">Bancos nacionales</text>
    <circle cx="335" cy="195" r="4" fill="#10b981"/>
    <!-- Row 5 - level 2 -->
    <rect x="96" y="202" width="278" height="14" fill="white"/>
    <text x="110" y="213" fill="#334155">100-02-000</text>
    <text x="184" y="213" fill="#334155">Clientes</text>
    <circle cx="335" cy="209" r="4" fill="#10b981"/>
    <!-- Row 6 - level 1 -->
    <rect x="96" y="216" width="278" height="14" fill="#f8fafc"/>
    <text x="104" y="227" fill="#0f172a" font-weight="700">200-00-000</text>
    <text x="184" y="227" fill="#0f172a" font-weight="700">PASIVO</text>
    <circle cx="335" cy="223" r="4" fill="#10b981"/>
    <!-- Row 7 -->
    <rect x="96" y="230" width="278" height="14" fill="white"/>
    <text x="110" y="241" fill="#334155">200-01-000</text>
    <text x="184" y="241" fill="#334155">Proveedores</text>
    <circle cx="335" cy="237" r="4" fill="#10b981"/>
    <!-- Row 8 -->
    <rect x="96" y="244" width="278" height="14" fill="#f8fafc"/>
    <text x="110" y="255" fill="#334155">200-02-000</text>
    <text x="184" y="255" fill="#334155">Impuestos x pagar</text>
    <circle cx="335" cy="251" r="4" fill="#3b82f6"/>
    <!-- Row 9 - level 1 -->
    <rect x="96" y="258" width="278" height="14" fill="white"/>
    <text x="104" y="269" fill="#0f172a" font-weight="700">300-00-000</text>
    <text x="184" y="269" fill="#0f172a" font-weight="700">CAPITAL</text>
    <circle cx="335" cy="265" r="4" fill="#10b981"/>
    <!-- Row 10 -->
    <rect x="96" y="272" width="278" height="14" fill="#f8fafc"/>
    <text x="110" y="283" fill="#334155">300-01-000</text>
    <text x="184" y="283" fill="#334155">Capital social</text>
    <circle cx="335" cy="279" r="4" fill="#10b981"/>
    <!-- Row 11 - level 1 -->
    <rect x="96" y="286" width="278" height="14" fill="white"/>
    <text x="104" y="297" fill="#0f172a" font-weight="700">400-00-000</text>
    <text x="184" y="297" fill="#0f172a" font-weight="700">INGRESOS</text>
    <circle cx="335" cy="293" r="4" fill="#10b981"/>
    <!-- Row 12 -->
    <rect x="96" y="300" width="278" height="14" fill="#f8fafc"/>
    <text x="110" y="311" fill="#334155">400-01-000</text>
    <text x="184" y="311" fill="#334155">Ventas nacionales</text>
    <circle cx="335" cy="307" r="4" fill="#10b981"/>
    <!-- Row 13 -->
    <rect x="96" y="314" width="278" height="14" fill="white"/>
    <text x="120" y="325" fill="#64748b">400-01-001</text>
    <text x="184" y="325" fill="#64748b">Venta producto</text>
    <circle cx="335" cy="321" r="4" fill="#10b981"/>
    <!-- Row 14 - level 1 -->
    <rect x="96" y="328" width="278" height="14" fill="#f8fafc"/>
    <text x="104" y="339" fill="#0f172a" font-weight="700">500-00-000</text>
    <text x="184" y="339" fill="#0f172a" font-weight="700">GASTOS</text>
    <circle cx="335" cy="335" r="4" fill="#10b981"/>
    <!-- Faded rows -->
    <rect x="96" y="342" width="278" height="14" fill="white" opacity="0.7"/>
    <rect x="96" y="356" width="278" height="14" fill="#f8fafc" opacity="0.5"/>
    <rect x="96" y="370" width="278" height="14" fill="white" opacity="0.3"/>
    <!-- Fade gradient at bottom -->
    <defs>
      <linearGradient id="fade" x1="0" y1="0" x2="0" y2="1">
        <stop offset="0%" stop-color="white" stop-opacity="0"/>
        <stop offset="100%" stop-color="white" stop-opacity="0.92"/>
      </linearGradient>
    </defs>
    <rect x="96" y="320" width="278" height="128" fill="url(#fade)"/>
  </g>

  <!-- Import badge on ledger -->
  <rect x="96" y="424" width="278" height="24" rx="0" fill="#10b981" opacity="0.12"/>
  <text x="116" y="440" fill="#10b981" font-family="'Courier New', monospace" font-size="9" font-weight="700">↑ IMPORTADO DESDE EXCEL · 247 cuentas</text>

  <!-- ── Bar chart (center) ── -->
  <!-- Chart frame -->
  <rect x="438" y="120" width="320" height="260" rx="10" fill="rgba(15,23,42,0.8)" stroke="rgba(59,130,246,0.2)" stroke-width="1"/>
  <text x="455" y="148" fill="rgba(255,255,255,0.6)" font-family="system-ui, sans-serif" font-size="10" font-weight="600" letter-spacing="1">BALANZA DE COMPROBACIÓN</text>

  <!-- Y axis labels -->
  <g fill="rgba(255,255,255,0.3)" font-family="'Courier New', monospace" font-size="8">
    <text x="443" y="172">800K</text>
    <text x="443" y="202">600K</text>
    <text x="443" y="232">400K</text>
    <text x="443" y="262">200K</text>
    <text x="455" y="292">0</text>
  </g>

  <!-- Horizontal grid lines -->
  <g stroke="rgba(255,255,255,0.06)" stroke-width="1">
    <line x1="476" y1="163" x2="748" y2="163"/>
    <line x1="476" y1="193" x2="748" y2="193"/>
    <line x1="476" y1="223" x2="748" y2="223"/>
    <line x1="476" y1="253" x2="748" y2="253"/>
    <line x1="476" y1="283" x2="748" y2="283"/>
  </g>

  <!-- Bars -->
  <!-- Activo -->
  <rect x="490" y="185" width="28" height="98" rx="4" fill="url(#glow1)" opacity="0.9"/>
  <rect x="522" y="200" width="28" height="83" rx="4" fill="url(#glow2)" opacity="0.9"/>
  <!-- Pasivo -->
  <rect x="570" y="205" width="28" height="78" rx="4" fill="url(#glow1)" opacity="0.9"/>
  <rect x="602" y="220" width="28" height="63" rx="4" fill="url(#glow2)" opacity="0.9"/>
  <!-- Capital -->
  <rect x="650" y="230" width="28" height="53" rx="4" fill="url(#glow3)" opacity="0.9"/>
  <rect x="682" y="245" width="28" height="38" rx="4" fill="url(#glow2)" opacity="0.9"/>

  <!-- X axis labels -->
  <g fill="rgba(255,255,255,0.4)" font-family="system-ui, sans-serif" font-size="8.5" text-anchor="middle">
    <text x="519" y="302">Activo</text>
    <text x="599" y="302">Pasivo</text>
    <text x="679" y="302">Capital</text>
  </g>
  <!-- Legend -->
  <rect x="520" y="312" width="8" height="8" rx="2" fill="#10b981"/>
  <text x="532" y="320" fill="rgba(255,255,255,0.5)" font-family="system-ui" font-size="8">Debe</text>
  <rect x="570" y="312" width="8" height="8" rx="2" fill="#3b82f6"/>
  <text x="582" y="320" fill="rgba(255,255,255,0.5)" font-family="system-ui" font-size="8">Haber</text>
  <rect x="620" y="312" width="8" height="8" rx="2" fill="#f59e0b"/>
  <text x="632" y="320" fill="rgba(255,255,255,0.5)" font-family="system-ui" font-size="8">Saldo</text>

  <!-- ── Floating KPI cards (right) ── -->
  <!-- Card 1: Cuentas activas -->
  <rect x="790" y="100" width="200" height="90" rx="12" fill="rgba(16,185,129,0.12)" stroke="rgba(16,185,129,0.3)" stroke-width="1"/>
  <text x="810" y="128" fill="rgba(255,255,255,0.5)" font-family="system-ui" font-size="10" letter-spacing="1">CUENTAS ACTIVAS</text>
  <text x="810" y="160" fill="#10b981" font-family="system-ui" font-size="34" font-weight="900">247</text>
  <text x="860" y="182" fill="rgba(16,185,129,0.5)" font-family="system-ui" font-size="9">↑ 12 este mes</text>

  <!-- Card 2: Pólizas -->
  <rect x="790" y="206" width="200" height="90" rx="12" fill="rgba(59,130,246,0.12)" stroke="rgba(59,130,246,0.3)" stroke-width="1"/>
  <text x="810" y="234" fill="rgba(255,255,255,0.5)" font-family="system-ui" font-size="10" letter-spacing="1">PÓLIZAS MES</text>
  <text x="810" y="266" fill="#3b82f6" font-family="system-ui" font-size="34" font-weight="900">84</text>
  <text x="856" y="288" fill="rgba(59,130,246,0.5)" font-family="system-ui" font-size="9">4 pendientes</text>

  <!-- Card 3: Resultado -->
  <rect x="790" y="312" width="200" height="90" rx="12" fill="rgba(245,158,11,0.12)" stroke="rgba(245,158,11,0.3)" stroke-width="1"/>
  <text x="810" y="340" fill="rgba(255,255,255,0.5)" font-family="system-ui" font-size="10" letter-spacing="1">RESULTADO</text>
  <text x="810" y="372" fill="#f59e0b" font-family="system-ui" font-size="28" font-weight="900">$128K</text>
  <text x="844" y="394" fill="rgba(245,158,11,0.5)" font-family="system-ui" font-size="9">Utilidad del periodo</text>

  <!-- ── Poliza entry (bottom center) ── -->
  <rect x="438" y="398" width="320" height="110" rx="10" fill="rgba(15,23,42,0.85)" stroke="rgba(255,255,255,0.06)" stroke-width="1"/>
  <text x="455" y="420" fill="rgba(255,255,255,0.4)" font-family="system-ui" font-size="9" font-weight="600" letter-spacing="1">ÚLTIMA PÓLIZA · POL-2026-084</text>
  <!-- Line items -->
  <g font-family="'Courier New', monospace" font-size="8.5">
    <text x="455" y="438" fill="rgba(255,255,255,0.7)">100-01-001  Caja general</text>
    <text x="650" y="438" fill="#10b981">    2,400.00</text>
    <text x="455" y="454" fill="rgba(255,255,255,0.7)">400-01-001  Venta producto</text>
    <text x="680" y="454" fill="#3b82f6">   2,400.00</text>
    <line x1="455" y1="462" x2="750" y2="462" stroke="rgba(255,255,255,0.08)" stroke-width="1"/>
    <text x="455" y="476" fill="rgba(255,255,255,0.3)">2100-01    IVA Traslado</text>
    <text x="680" y="476" fill="#3b82f6">     384.00</text>
    <text x="580" y="495" fill="rgba(255,255,255,0.2)">Posteada · 25/05/2026</text>
  </g>

  <!-- ── Floating particles ── -->
  <circle cx="140" cy="480" r="3" fill="#10b981" opacity="0.4"/>
  <circle cx="200" cy="50" r="5" fill="#3b82f6" opacity="0.3"/>
  <circle cx="1100" cy="80" r="4" fill="#f59e0b" opacity="0.35"/>
  <circle cx="1150" cy="450" r="6" fill="#10b981" opacity="0.25"/>
  <circle cx="420" cy="490" r="3" fill="#3b82f6" opacity="0.4"/>

  <!-- ── Bottom brand strip ── -->
  <rect x="0" y="510" width="1200" height="30" fill="rgba(0,0,0,0.3)"/>
  <text x="60" y="530" fill="rgba(255,255,255,0.3)" font-family="system-ui" font-size="10" letter-spacing="2">NANCHESOFT ERP</text>
  <text x="500" y="530" fill="rgba(255,255,255,0.2)" font-family="system-ui" font-size="9">Contabilidad · Catálogo · Pólizas · Balanza · Cierre mensual · Reportes</text>
</svg>
