<svg xmlns="http://www.w3.org/2000/svg" viewBox="0 0 800 400" width="800" height="400" role="img" aria-label="Nanchesoft Cloud - Controla, vende y crece desde la nube">
  <defs>
    <linearGradient id="cloudDark" x1="0" y1="0" x2="1" y2="1">
      <stop offset="0" stop-color="#21487a"/>
      <stop offset="0.55" stop-color="#143058"/>
      <stop offset="1" stop-color="#0b1f3c"/>
    </linearGradient>
    <linearGradient id="cloudBright" x1="0.1" y1="0" x2="0.9" y2="1">
      <stop offset="0" stop-color="#5cd8fc"/>
      <stop offset="0.5" stop-color="#10b0ef"/>
      <stop offset="1" stop-color="#0192d8"/>
    </linearGradient>
    <linearGradient id="sq" x1="0" y1="0" x2="1" y2="1">
      <stop offset="0" stop-color="#62d6fb"/>
      <stop offset="1" stop-color="#09a9ec"/>
    </linearGradient>
    <linearGradient id="wmDark" x1="0" y1="0" x2="0" y2="1">
      <stop offset="0" stop-color="#6fa8ee"/>
      <stop offset="1" stop-color="#4d86d6"/>
    </linearGradient>
    <linearGradient id="wmBright" x1="0" y1="0" x2="0" y2="1">
      <stop offset="0" stop-color="#2bbcf7"/>
      <stop offset="1" stop-color="#019fe0"/>
    </linearGradient>
    <linearGradient id="rule" x1="0" y1="0" x2="1" y2="0">
      <stop offset="0" stop-color="#1b4886" stop-opacity="0"/>
      <stop offset="0.5" stop-color="#2bbcf7"/>
      <stop offset="1" stop-color="#1b4886" stop-opacity="0"/>
    </linearGradient>
  </defs>
  <g transform="translate(270,18) scale(1.05)">
    <!-- bright full cloud (back) -->
    <path fill="url(#cloudBright)" d="M58 188
      a48 48 0 0 1 4 -96
      a44 44 0 0 1 16 -30
      a66 66 0 0 1 118 14
      a54 54 0 0 1 14 112
      Z"/>
    <!-- dark front lobe -->
    <path fill="url(#cloudDark)" d="M58 188
      a48 48 0 0 1 4 -96
      a44 44 0 0 1 16 -30
      a66 66 0 0 1 110 8
      C175 86 150 110 122 128
      C96 145 84 166 92 188
      Z"/>
    <!-- swoosh -->
    <path fill="none" stroke="#80e2ff" stroke-width="4" stroke-linecap="round" opacity="0.85"
      d="M86 150 C118 124 158 100 196 76"/>
    <!-- squares -->
    <rect x="118" y="92" width="44" height="44" rx="6" fill="url(#sq)"/>
    <rect x="170" y="100" width="26" height="26" rx="5" fill="url(#sq)"/>
    <rect x="170" y="134" width="26" height="26" rx="5" fill="url(#sq)"/>
  </g>
  <!-- wordmark -->
  <g>
<path transform="translate(60.00,300.00) scale(0.07600,-0.07600)" fill="url(#wmDark)" d="M690 0H519L233 433V0H62V702H233L519 267V702H690Z"/>
<path transform="translate(116.15,300.00) scale(0.07600,-0.07600)" fill="url(#wmDark)" d="M274 566Q333 566 377.5 542.0Q422 518 446 479V558H617V0H446V79Q421 40 376.5 16.0Q332 -8 273 -8Q205 -8 149.0 27.5Q93 63 60.5 128.5Q28 194 28 280Q28 366 60.5 431.0Q93 496 149.0 531.0Q205 566 274 566ZM324 417Q273 417 237.5 380.5Q202 344 202 280Q202 216 237.5 178.5Q273 141 324 141Q375 141 410.5 178.0Q446 215 446 279Q446 343 410.5 380.0Q375 417 324 417Z"/>
<path transform="translate(166.76,300.00) scale(0.07600,-0.07600)" fill="url(#wmDark)" d="M617 326V0H447V303Q447 359 418.0 390.0Q389 421 340 421Q291 421 262.0 390.0Q233 359 233 303V0H62V558H233V484Q259 521 303.0 542.5Q347 564 402 564Q500 564 558.5 500.5Q617 437 617 326Z"/>
<path transform="translate(216.98,300.00) scale(0.07600,-0.07600)" fill="url(#wmDark)" d="M308 566Q413 566 483.5 511.0Q554 456 576 356H394Q371 420 305 420Q258 420 230.0 383.5Q202 347 202 279Q202 211 230.0 174.5Q258 138 305 138Q371 138 394 202H576Q554 104 483.0 48.0Q412 -8 308 -8Q226 -8 162.5 27.0Q99 62 63.5 127.0Q28 192 28 279Q28 366 63.5 431.0Q99 496 162.5 531.0Q226 566 308 566Z"/>
<path transform="translate(261.96,300.00) scale(0.07600,-0.07600)" fill="url(#wmDark)" d="M617 326V0H447V303Q447 359 418.0 390.0Q389 421 340 421Q291 421 262.0 390.0Q233 359 233 303V0H62V740H233V483Q259 520 304.0 542.0Q349 564 405 564Q501 564 559.0 500.5Q617 437 617 326Z"/>
<path transform="translate(312.18,300.00) scale(0.07600,-0.07600)" fill="url(#wmDark)" d="M585 238H198Q202 186 231.5 158.5Q261 131 304 131Q368 131 393 185H575Q561 130 524.5 86.0Q488 42 433.0 17.0Q378 -8 310 -8Q228 -8 164.0 27.0Q100 62 64.0 127.0Q28 192 28 279Q28 366 63.5 431.0Q99 496 163.0 531.0Q227 566 310 566Q391 566 454.0 532.0Q517 498 552.5 435.0Q588 372 588 288Q588 264 585 238ZM413 333Q413 377 383.0 403.0Q353 429 308 429Q265 429 235.5 404.0Q206 379 199 333Z"/>
<path transform="translate(358.00,300.00) scale(0.07600,-0.07600)" fill="url(#wmDark)" d="M32 183H201Q204 154 228.0 136.0Q252 118 287 118Q319 118 336.5 130.5Q354 143 354 163Q354 187 329.0 198.5Q304 210 248 224Q188 238 148.0 253.5Q108 269 79.0 302.5Q50 336 50 393Q50 441 76.5 480.5Q103 520 154.5 543.0Q206 566 277 566Q382 566 442.5 514.0Q503 462 512 376H354Q350 405 328.5 422.0Q307 439 272 439Q242 439 226.0 427.5Q210 416 210 396Q210 372 235.5 360.0Q261 348 315 336Q377 320 416.0 304.5Q455 289 484.5 254.5Q514 220 515 162Q515 113 487.5 74.5Q460 36 408.5 14.0Q357 -8 289 -8Q216 -8 159.0 17.0Q102 42 69.0 85.5Q36 129 32 183Z"/>
<path transform="translate(399.41,300.00) scale(0.07600,-0.07600)" fill="url(#wmDark)" d="M28 279Q28 365 66.0 430.5Q104 496 170.0 531.0Q236 566 318 566Q400 566 466.0 531.0Q532 496 570.0 430.5Q608 365 608 279Q608 193 569.5 127.5Q531 62 464.5 27.0Q398 -8 316 -8Q234 -8 168.5 27.0Q103 62 65.5 127.0Q28 192 28 279ZM434 279Q434 346 400.5 382.0Q367 418 318 418Q268 418 235.0 382.5Q202 347 202 279Q202 212 234.5 176.0Q267 140 316 140Q365 140 399.5 176.0Q434 212 434 279Z"/>
<path transform="translate(446.82,300.00) scale(0.07600,-0.07600)" fill="url(#wmDark)" d="M342 416H250V0H79V416H17V558H79V574Q79 677 138.0 730.5Q197 784 311 784Q330 784 339 783V638Q290 641 270.0 624.0Q250 607 250 563V558H342Z"/>
<path transform="translate(473.18,300.00) scale(0.07600,-0.07600)" fill="url(#wmDark)" d="M373 145V0H286Q193 0 141.0 45.5Q89 91 89 194V416H21V558H89V694H260V558H372V416H260V192Q260 167 272.0 156.0Q284 145 312 145Z"/>
<path transform="translate(517.04,300.00) scale(0.07600,-0.07600)" fill="url(#wmBright)" d="M386 710Q511 710 600.0 644.0Q689 578 719 464H531Q510 508 471.5 531.0Q433 554 384 554Q305 554 256.0 499.0Q207 444 207 352Q207 260 256.0 205.0Q305 150 384 150Q433 150 471.5 173.0Q510 196 531 240H719Q689 126 600.0 60.5Q511 -5 386 -5Q284 -5 203.5 40.5Q123 86 78.0 167.0Q33 248 33 352Q33 456 78.0 537.5Q123 619 203.5 664.5Q284 710 386 710Z"/>
<path transform="translate(573.95,300.00) scale(0.07600,-0.07600)" fill="url(#wmBright)" d="M233 740V0H62V740Z"/>
<path transform="translate(595.37,300.00) scale(0.07600,-0.07600)" fill="url(#wmBright)" d="M28 279Q28 365 66.0 430.5Q104 496 170.0 531.0Q236 566 318 566Q400 566 466.0 531.0Q532 496 570.0 430.5Q608 365 608 279Q608 193 569.5 127.5Q531 62 464.5 27.0Q398 -8 316 -8Q234 -8 168.5 27.0Q103 62 65.5 127.0Q28 192 28 279ZM434 279Q434 346 400.5 382.0Q367 418 318 418Q268 418 235.0 382.5Q202 347 202 279Q202 212 234.5 176.0Q267 140 316 140Q365 140 399.5 176.0Q434 212 434 279Z"/>
<path transform="translate(642.78,300.00) scale(0.07600,-0.07600)" fill="url(#wmBright)" d="M613 558V0H442V76Q416 39 371.5 16.5Q327 -6 273 -6Q209 -6 160.0 22.5Q111 51 84.0 105.0Q57 159 57 232V558H227V255Q227 199 256.0 168.0Q285 137 334 137Q384 137 413.0 168.0Q442 199 442 255V558Z"/>
<path transform="translate(693.00,300.00) scale(0.07600,-0.07600)" fill="url(#wmBright)" d="M274 566Q329 566 374.5 543.0Q420 520 446 481V740H617V0H446V80Q422 40 377.5 16.0Q333 -8 274 -8Q205 -8 149.0 27.5Q93 63 60.5 128.5Q28 194 28 280Q28 366 60.5 431.0Q93 496 149.0 531.0Q205 566 274 566ZM324 417Q273 417 237.5 380.5Q202 344 202 280Q202 216 237.5 178.5Q273 141 324 141Q375 141 410.5 178.0Q446 215 446 279Q446 343 410.5 380.0Q375 417 324 417Z"/>
  </g>
  <rect x="150" y="318" width="500" height="3" rx="1.5" fill="url(#rule)"/>
<g transform="translate(144.95,372)">
<path transform="translate(0.00,0.00) scale(0.02600,-0.02600)" fill="#cdd6e2" d="M392 704Q503 704 589.5 649.5Q676 595 715 495H578Q551 550 503.0 577.0Q455 604 392 604Q323 604 269.0 573.0Q215 542 184.5 484.0Q154 426 154 349Q154 272 184.5 214.0Q215 156 269.0 124.5Q323 93 392 93Q455 93 503.0 120.0Q551 147 578 202H715Q676 102 589.5 48.0Q503 -6 392 -6Q294 -6 213.0 39.5Q132 85 84.5 166.0Q37 247 37 349Q37 451 84.5 532.0Q132 613 213.5 658.5Q295 704 392 704Z"/>
<path transform="translate(20.10,0.00) scale(0.02600,-0.02600)" fill="#cdd6e2" d="M38 276Q38 360 75.0 425.0Q112 490 176.0 525.0Q240 560 319 560Q398 560 462.0 525.0Q526 490 563.0 425.0Q600 360 600 276Q600 192 562.0 127.0Q524 62 458.5 26.5Q393 -9 314 -9Q236 -9 173.0 26.5Q110 62 74.0 126.5Q38 191 38 276ZM483 276Q483 336 460.0 377.5Q437 419 399.0 440.0Q361 461 317 461Q273 461 235.5 440.0Q198 419 176.0 377.5Q154 336 154 276Q154 187 199.5 138.5Q245 90 314 90Q358 90 396.5 111.0Q435 132 459.0 174.0Q483 216 483 276Z"/>
<path transform="translate(36.69,0.00) scale(0.02600,-0.02600)" fill="#cdd6e2" d="M579 325V0H466V308Q466 382 429.0 421.5Q392 461 328 461Q264 461 226.5 421.5Q189 382 189 308V0H75V551H189V488Q217 522 260.5 541.0Q304 560 353 560Q418 560 469.5 533.0Q521 506 550.0 453.0Q579 400 579 325Z"/>
<path transform="translate(53.56,0.00) scale(0.02600,-0.02600)" fill="#cdd6e2" d="M208 458V153Q208 122 222.5 108.5Q237 95 272 95H342V0H252Q175 0 134.0 36.0Q93 72 93 153V458H28V551H93V688H208V551H342V458Z"/>
<path transform="translate(63.23,0.00) scale(0.02600,-0.02600)" fill="#cdd6e2" d="M354 560V442H325Q258 442 223.5 408.0Q189 374 189 290V0H75V551H189V471Q214 513 255.5 536.5Q297 560 354 560Z"/>
<path transform="translate(73.22,0.00) scale(0.02600,-0.02600)" fill="#cdd6e2" d="M38 276Q38 360 75.0 425.0Q112 490 176.0 525.0Q240 560 319 560Q398 560 462.0 525.0Q526 490 563.0 425.0Q600 360 600 276Q600 192 562.0 127.0Q524 62 458.5 26.5Q393 -9 314 -9Q236 -9 173.0 26.5Q110 62 74.0 126.5Q38 191 38 276ZM483 276Q483 336 460.0 377.5Q437 419 399.0 440.0Q361 461 317 461Q273 461 235.5 440.0Q198 419 176.0 377.5Q154 336 154 276Q154 187 199.5 138.5Q245 90 314 90Q358 90 396.5 111.0Q435 132 459.0 174.0Q483 216 483 276Z"/>
<path transform="translate(89.80,0.00) scale(0.02600,-0.02600)" fill="#cdd6e2" d="M189 740V0H75V740Z"/>
<path transform="translate(96.67,0.00) scale(0.02600,-0.02600)" fill="#cdd6e2" d="M297 560Q362 560 410.5 534.5Q459 509 488 471V551H603V0H488V82Q459 43 409.0 17.0Q359 -9 295 -9Q224 -9 165.0 27.5Q106 64 71.5 129.5Q37 195 37 278Q37 361 71.5 425.0Q106 489 165.5 524.5Q225 560 297 560ZM321 461Q277 461 239.0 439.5Q201 418 177.5 376.5Q154 335 154 278Q154 221 177.5 178.0Q201 135 239.5 112.5Q278 90 321 90Q365 90 403.0 112.0Q441 134 464.5 176.5Q488 219 488 276Q488 333 464.5 375.0Q441 417 403.0 439.0Q365 461 321 461Z"/>
<path transform="translate(114.30,0.00) scale(0.02600,-0.02600)" fill="#cdd6e2" d="M200 137 79 -139H5L76 137Z"/>
<path transform="translate(126.91,0.00) scale(0.02600,-0.02600)" fill="#cdd6e2" d="M288 102 444 551H565L355 0H219L10 551H132Z"/>
<path transform="translate(141.88,0.00) scale(0.02600,-0.02600)" fill="#cdd6e2" d="M576 233H155Q160 167 204.0 127.0Q248 87 312 87Q404 87 442 164H565Q540 88 474.5 39.5Q409 -9 312 -9Q233 -9 170.5 26.5Q108 62 72.5 126.5Q37 191 37 276Q37 361 71.5 425.5Q106 490 168.5 525.0Q231 560 312 560Q390 560 451.0 526.0Q512 492 546.0 430.5Q580 369 580 289Q580 258 576 233ZM461 325Q460 388 416.0 426.0Q372 464 307 464Q248 464 206.0 426.5Q164 389 156 325Z"/>
<path transform="translate(157.92,0.00) scale(0.02600,-0.02600)" fill="#cdd6e2" d="M579 325V0H466V308Q466 382 429.0 421.5Q392 461 328 461Q264 461 226.5 421.5Q189 382 189 308V0H75V551H189V488Q217 522 260.5 541.0Q304 560 353 560Q418 560 469.5 533.0Q521 506 550.0 453.0Q579 400 579 325Z"/>
<path transform="translate(174.80,0.00) scale(0.02600,-0.02600)" fill="#cdd6e2" d="M298 560Q352 560 404.5 536.5Q457 513 488 474V740H603V0H488V83Q460 43 410.5 17.0Q361 -9 297 -9Q225 -9 165.5 27.5Q106 64 71.5 129.5Q37 195 37 278Q37 361 71.5 425.0Q106 489 165.5 524.5Q225 560 298 560ZM321 461Q277 461 239.0 439.5Q201 418 177.5 376.5Q154 335 154 278Q154 221 177.5 178.0Q201 135 239.5 112.5Q278 90 321 90Q365 90 403.0 112.0Q441 134 464.5 176.5Q488 219 488 276Q488 333 464.5 375.0Q441 417 403.0 439.0Q365 461 321 461Z"/>
<path transform="translate(192.43,0.00) scale(0.02600,-0.02600)" fill="#cdd6e2" d="M576 233H155Q160 167 204.0 127.0Q248 87 312 87Q404 87 442 164H565Q540 88 474.5 39.5Q409 -9 312 -9Q233 -9 170.5 26.5Q108 62 72.5 126.5Q37 191 37 276Q37 361 71.5 425.5Q106 490 168.5 525.0Q231 560 312 560Q390 560 451.0 526.0Q512 492 546.0 430.5Q580 369 580 289Q580 258 576 233ZM461 325Q460 388 416.0 426.0Q372 464 307 464Q248 464 206.0 426.5Q164 389 156 325Z"/>
<path transform="translate(215.23,0.00) scale(0.02600,-0.02600)" fill="#cdd6e2" d="M571 551 233 -259H115L227 9L10 551H137L292 131L453 551Z"/>
<path transform="translate(237.12,0.00) scale(0.02600,-0.02600)" fill="#cdd6e2" d="M307 560Q407 560 472.5 512.5Q538 465 561 377H438Q423 418 390.0 441.0Q357 464 307 464Q237 464 195.5 414.5Q154 365 154 276Q154 187 195.5 137.0Q237 87 307 87Q406 87 438 174H561Q537 90 471.0 40.5Q405 -9 307 -9Q228 -9 167.0 26.5Q106 62 71.5 126.5Q37 191 37 276Q37 361 71.5 425.5Q106 490 167.0 525.0Q228 560 307 560Z"/>
<path transform="translate(252.72,0.00) scale(0.02600,-0.02600)" fill="#cdd6e2" d="M354 560V442H325Q258 442 223.5 408.0Q189 374 189 290V0H75V551H189V471Q214 513 255.5 536.5Q297 560 354 560Z"/>
<path transform="translate(262.70,0.00) scale(0.02600,-0.02600)" fill="#cdd6e2" d="M576 233H155Q160 167 204.0 127.0Q248 87 312 87Q404 87 442 164H565Q540 88 474.5 39.5Q409 -9 312 -9Q233 -9 170.5 26.5Q108 62 72.5 126.5Q37 191 37 276Q37 361 71.5 425.5Q106 490 168.5 525.0Q231 560 312 560Q390 560 451.0 526.0Q512 492 546.0 430.5Q580 369 580 289Q580 258 576 233ZM461 325Q460 388 416.0 426.0Q372 464 307 464Q248 464 206.0 426.5Q164 389 156 325Z"/>
<path transform="translate(278.75,0.00) scale(0.02600,-0.02600)" fill="#cdd6e2" d="M307 560Q407 560 472.5 512.5Q538 465 561 377H438Q423 418 390.0 441.0Q357 464 307 464Q237 464 195.5 414.5Q154 365 154 276Q154 187 195.5 137.0Q237 87 307 87Q406 87 438 174H561Q537 90 471.0 40.5Q405 -9 307 -9Q228 -9 167.0 26.5Q106 62 71.5 126.5Q37 191 37 276Q37 361 71.5 425.5Q106 490 167.0 525.0Q228 560 307 560Z"/>
<path transform="translate(294.35,0.00) scale(0.02600,-0.02600)" fill="#cdd6e2" d="M576 233H155Q160 167 204.0 127.0Q248 87 312 87Q404 87 442 164H565Q540 88 474.5 39.5Q409 -9 312 -9Q233 -9 170.5 26.5Q108 62 72.5 126.5Q37 191 37 276Q37 361 71.5 425.5Q106 490 168.5 525.0Q231 560 312 560Q390 560 451.0 526.0Q512 492 546.0 430.5Q580 369 580 289Q580 258 576 233ZM461 325Q460 388 416.0 426.0Q372 464 307 464Q248 464 206.0 426.5Q164 389 156 325Z"/>
<path transform="translate(317.15,0.00) scale(0.02600,-0.02600)" fill="#27baf6" d="M298 560Q352 560 404.5 536.5Q457 513 488 474V740H603V0H488V83Q460 43 410.5 17.0Q361 -9 297 -9Q225 -9 165.5 27.5Q106 64 71.5 129.5Q37 195 37 278Q37 361 71.5 425.0Q106 489 165.5 524.5Q225 560 298 560ZM321 461Q277 461 239.0 439.5Q201 418 177.5 376.5Q154 335 154 278Q154 221 177.5 178.0Q201 135 239.5 112.5Q278 90 321 90Q365 90 403.0 112.0Q441 134 464.5 176.5Q488 219 488 276Q488 333 464.5 375.0Q441 417 403.0 439.0Q365 461 321 461Z"/>
<path transform="translate(334.78,0.00) scale(0.02600,-0.02600)" fill="#27baf6" d="M576 233H155Q160 167 204.0 127.0Q248 87 312 87Q404 87 442 164H565Q540 88 474.5 39.5Q409 -9 312 -9Q233 -9 170.5 26.5Q108 62 72.5 126.5Q37 191 37 276Q37 361 71.5 425.5Q106 490 168.5 525.0Q231 560 312 560Q390 560 451.0 526.0Q512 492 546.0 430.5Q580 369 580 289Q580 258 576 233ZM461 325Q460 388 416.0 426.0Q372 464 307 464Q248 464 206.0 426.5Q164 389 156 325Z"/>
<path transform="translate(350.82,0.00) scale(0.02600,-0.02600)" fill="#27baf6" d="M45 169H163Q166 134 196.5 110.5Q227 87 273 87Q321 87 347.5 105.5Q374 124 374 153Q374 184 344.5 199.0Q315 214 251 232Q189 249 150.0 265.0Q111 281 82.5 314.0Q54 347 54 401Q54 445 80.0 481.5Q106 518 154.5 539.0Q203 560 266 560Q360 560 417.5 512.5Q475 465 479 383H365Q362 420 335.0 442.0Q308 464 262 464Q217 464 193.0 447.0Q169 430 169 402Q169 380 185.0 365.0Q201 350 224.0 341.5Q247 333 292 320Q352 304 390.5 287.5Q429 271 457.0 239.0Q485 207 486 154Q486 107 460.0 70.0Q434 33 386.5 12.0Q339 -9 275 -9Q210 -9 158.5 14.5Q107 38 77.0 78.5Q47 119 45 169Z"/>
<path transform="translate(364.70,0.00) scale(0.02600,-0.02600)" fill="#27baf6" d="M298 560Q352 560 404.5 536.5Q457 513 488 474V740H603V0H488V83Q460 43 410.5 17.0Q361 -9 297 -9Q225 -9 165.5 27.5Q106 64 71.5 129.5Q37 195 37 278Q37 361 71.5 425.0Q106 489 165.5 524.5Q225 560 298 560ZM321 461Q277 461 239.0 439.5Q201 418 177.5 376.5Q154 335 154 278Q154 221 177.5 178.0Q201 135 239.5 112.5Q278 90 321 90Q365 90 403.0 112.0Q441 134 464.5 176.5Q488 219 488 276Q488 333 464.5 375.0Q441 417 403.0 439.0Q365 461 321 461Z"/>
<path transform="translate(382.33,0.00) scale(0.02600,-0.02600)" fill="#27baf6" d="M576 233H155Q160 167 204.0 127.0Q248 87 312 87Q404 87 442 164H565Q540 88 474.5 39.5Q409 -9 312 -9Q233 -9 170.5 26.5Q108 62 72.5 126.5Q37 191 37 276Q37 361 71.5 425.5Q106 490 168.5 525.0Q231 560 312 560Q390 560 451.0 526.0Q512 492 546.0 430.5Q580 369 580 289Q580 258 576 233ZM461 325Q460 388 416.0 426.0Q372 464 307 464Q248 464 206.0 426.5Q164 389 156 325Z"/>
<path transform="translate(405.13,0.00) scale(0.02600,-0.02600)" fill="#27baf6" d="M189 740V0H75V740Z"/>
<path transform="translate(412.00,0.00) scale(0.02600,-0.02600)" fill="#27baf6" d="M297 560Q362 560 410.5 534.5Q459 509 488 471V551H603V0H488V82Q459 43 409.0 17.0Q359 -9 295 -9Q224 -9 165.0 27.5Q106 64 71.5 129.5Q37 195 37 278Q37 361 71.5 425.0Q106 489 165.5 524.5Q225 560 297 560ZM321 461Q277 461 239.0 439.5Q201 418 177.5 376.5Q154 335 154 278Q154 221 177.5 178.0Q201 135 239.5 112.5Q278 90 321 90Q365 90 403.0 112.0Q441 134 464.5 176.5Q488 219 488 276Q488 333 464.5 375.0Q441 417 403.0 439.0Q365 461 321 461Z"/>
<path transform="translate(436.38,0.00) scale(0.02600,-0.02600)" fill="#27baf6" d="M579 325V0H466V308Q466 382 429.0 421.5Q392 461 328 461Q264 461 226.5 421.5Q189 382 189 308V0H75V551H189V488Q217 522 260.5 541.0Q304 560 353 560Q418 560 469.5 533.0Q521 506 550.0 453.0Q579 400 579 325Z"/>
<path transform="translate(453.26,0.00) scale(0.02600,-0.02600)" fill="#27baf6" d="M574 551V0H460V65Q433 31 389.5 11.5Q346 -8 297 -8Q232 -8 180.5 19.0Q129 46 99.5 99.0Q70 152 70 227V551H183V244Q183 170 220.0 130.5Q257 91 321 91Q385 91 422.5 130.5Q460 170 460 244V551Z"/>
<path transform="translate(470.13,0.00) scale(0.02600,-0.02600)" fill="#27baf6" d="M381 560Q454 560 513.0 525.0Q572 490 606.0 425.5Q640 361 640 278Q640 195 606.0 129.5Q572 64 512.5 27.5Q453 -9 381 -9Q317 -9 267.5 16.0Q218 41 189 80V0H75V740H189V469Q218 509 268.5 534.5Q319 560 381 560ZM356 461Q313 461 274.5 439.0Q236 417 212.5 375.0Q189 333 189 276Q189 219 212.5 176.5Q236 134 274.5 112.0Q313 90 356 90Q400 90 438.5 112.5Q477 135 500.5 178.0Q524 221 524 278Q524 335 500.5 376.5Q477 418 438.5 439.5Q400 461 356 461Z"/>
<path transform="translate(487.76,0.00) scale(0.02600,-0.02600)" fill="#27baf6" d="M576 233H155Q160 167 204.0 127.0Q248 87 312 87Q404 87 442 164H565Q540 88 474.5 39.5Q409 -9 312 -9Q233 -9 170.5 26.5Q108 62 72.5 126.5Q37 191 37 276Q37 361 71.5 425.5Q106 490 168.5 525.0Q231 560 312 560Q390 560 451.0 526.0Q512 492 546.0 430.5Q580 369 580 289Q580 258 576 233ZM461 325Q460 388 416.0 426.0Q372 464 307 464Q248 464 206.0 426.5Q164 389 156 325Z"/>
<path transform="translate(503.80,0.00) scale(0.02600,-0.02600)" fill="#27baf6" d="M48 66Q48 97 69.0 118.0Q90 139 121 139Q151 139 172.0 118.0Q193 97 193 66Q193 35 172.0 14.0Q151 -7 121 -7Q90 -7 69.0 14.0Q48 35 48 66Z"/>
</g>
</svg>